<mxfile host="app.diagrams.net" modified="2023-11-17T11:15:04.294Z" agent="Mozilla/5.0 (Windows NT 10.0; Win64; x64) AppleWebKit/537.36 (KHTML, like Gecko) Chrome/119.0.0.0 Safari/537.36" etag="fBUtdZq4jyjGw8eEF8uy" version="22.1.2" type="gitlab">
  <diagram name="Page-1" id="03018318-947c-dd8e-b7a3-06fadd420f32">
    <mxGraphModel dx="1750" dy="1793" grid="1" gridSize="10" guides="1" tooltips="1" connect="1" arrows="1" fold="1" page="1" pageScale="1" pageWidth="1100" pageHeight="850" background="#ffffff" math="0" shadow="0">
      <root>
        <mxCell id="0" />
        <mxCell id="1" parent="0" />
        <mxCell id="eDGOdwSpTdFz1jd0yo_i-4" value="" style="rounded=0;whiteSpace=wrap;html=1;" vertex="1" parent="1">
          <mxGeometry x="393" y="230" width="387" height="320" as="geometry" />
        </mxCell>
        <mxCell id="677b7b8949515195-1" value="" style="whiteSpace=wrap;html=1;rounded=0;shadow=0;labelBackgroundColor=none;strokeColor=#000000;strokeWidth=1;fillColor=none;fontFamily=Verdana;fontSize=12;fontColor=#000000;align=center;comic=1;" parent="1" vertex="1">
          <mxGeometry x="48" y="-20" width="1060" height="810" as="geometry" />
        </mxCell>
        <mxCell id="8MxXZiBAqhEL92ki6RWF-1" value="" style="rounded=0;whiteSpace=wrap;html=1;" parent="1" vertex="1">
          <mxGeometry x="450" y="320" width="256" height="40" as="geometry" />
        </mxCell>
        <mxCell id="8MxXZiBAqhEL92ki6RWF-4" value="" style="rounded=0;whiteSpace=wrap;html=1;" parent="1" vertex="1">
          <mxGeometry x="450" y="380" width="256" height="40" as="geometry" />
        </mxCell>
        <mxCell id="8MxXZiBAqhEL92ki6RWF-16" value="&lt;b&gt;Login&lt;/b&gt;" style="rounded=1;fillColor=#dae8fc;align=center;strokeColor=#6c8ebf;html=1;whiteSpace=wrap;fontSize=12;sketch=0;" parent="1" vertex="1">
          <mxGeometry x="450" y="460" width="260" height="33" as="geometry" />
        </mxCell>
        <mxCell id="LQenkPKNPlkYQLWToqc9-1" value="&lt;font style=&quot;font-size: 26px;&quot;&gt;SIGN IN&lt;/font&gt;" style="text;html=1;points=[];align=left;verticalAlign=top;spacingTop=-4;fontSize=14;fontFamily=Verdana" parent="1" vertex="1">
          <mxGeometry x="520" y="260" width="122" height="10" as="geometry" />
        </mxCell>
        <mxCell id="eDGOdwSpTdFz1jd0yo_i-1" value="Email" style="text;html=1;points=[];align=left;verticalAlign=top;spacingTop=-4;fontSize=14;fontFamily=Verdana" vertex="1" parent="1">
          <mxGeometry x="460" y="330" width="60" height="20" as="geometry" />
        </mxCell>
        <mxCell id="eDGOdwSpTdFz1jd0yo_i-2" value="Password" style="text;html=1;points=[];align=left;verticalAlign=top;spacingTop=-4;fontSize=14;fontFamily=Verdana" vertex="1" parent="1">
          <mxGeometry x="460" y="390" width="60" height="20" as="geometry" />
        </mxCell>
        <mxCell id="eDGOdwSpTdFz1jd0yo_i-5" value="&lt;font style=&quot;font-size: 12px;&quot;&gt;Sign up&lt;/font&gt;" style="text;html=1;points=[];align=left;verticalAlign=top;spacingTop=-4;fontSize=14;fontFamily=Verdana" vertex="1" parent="1">
          <mxGeometry x="658" y="430" width="122" height="30" as="geometry" />
        </mxCell>
      </root>
    </mxGraphModel>
  </diagram>
</mxfile>
